<svg width="36" height="28" viewBox="0 0 36 28" fill="none" xmlns="http://www.w3.org/2000/svg">
<path d="M14.375 28V17.0435L10.5625 21.1442L3.8125 17.4279V22.4256L14.375 28Z" fill="#F9961F"/>
<path d="M15.75 28V17.0435C15.75 17.0435 17.7734 19.5423 18.125 19.7346C18.25 22.1053 20.0625 23.9634 21.9375 24.7151L15.75 28Z" fill="#F9961F"/>
<path d="M30 5.70252L26.25 9.35469L26.9375 10.177C26 9.93135 25.1875 9.86728 24.1875 10.3158L20.3125 12.3982C18.4267 13.9205 17.9251 15.0182 18.0158 17.4279L19.875 19.4783L22.0625 18.3249C21.4375 16.9794 22.5875 14.9697 23.8125 14.1602C25.0375 13.3506 27.4375 13.7757 28.375 14.7368C25.983 16.063 24.4545 16.9988 22.0625 18.3249L19.875 19.4783L18.0158 17.4279L15.75 14.9291L20.3125 12.3982L24.1875 10.3158L24.875 9.86728L15.0625 4.16476L5.3125 9.86728L14.375 14.9291L10.0625 19.4783L0 13.8398L3.8125 9.35469L0 5.70252L10.5625 0L15.0625 3.01144L19.5 0L30 5.70252Z" fill="#F9961F"/>
<path d="M22.375 19.5423L26.25 17.4279V21.913C24.5 21.913 22.75 20.6957 22.375 19.5423Z" fill="#F9961F"/>
<path fill-rule="evenodd" clip-rule="evenodd" d="M31.9436 21.5545C32.7145 20.4152 33.1647 19.0412 33.1647 17.5621C33.1647 13.6227 29.9712 10.4292 26.0318 10.4292C22.0924 10.4292 18.8989 13.6227 18.8989 17.5621C18.8989 21.5015 22.0924 24.695 26.0318 24.695C27.6151 24.695 29.0779 24.1791 30.2613 23.3063L33.6395 26.6844C34.1136 27.1586 34.8823 27.1586 35.3565 26.6844C35.8306 26.2103 35.8306 25.4415 35.3565 24.9674L31.9436 21.5545ZM26.0318 22.3122C28.5742 22.3122 30.9083 20.1045 30.9083 17.5621C30.9083 15.0196 28.5742 12.7046 26.0318 12.7046C23.4894 12.7046 21.1744 15.0196 21.1744 17.5621C21.1744 20.1045 23.4894 22.3122 26.0318 22.3122Z" fill="#F9961F"/>
</svg>
