<svg width="34" height="28" viewBox="0 0 34 28" fill="none" xmlns="http://www.w3.org/2000/svg">
<path d="M14.7163 27.5183V16.7502L10.8133 20.7804L3.90303 17.1281V22.0398L14.7163 27.5183Z" fill="#F9961F"/>
<path d="M16.124 27.5183V16.7502L18.4034 19.1431V26.3565L16.124 27.5183Z" fill="#F9961F"/>
<path d="M19.963 0L30.7123 5.6044L27.7546 8.36978H23.0858L15.4202 4.0931L5.43864 9.69751L14.7163 14.6722L10.3014 19.1431L0 13.6017L3.90303 9.19374L0 5.6044L10.8133 0L15.4202 2.95963L19.963 0Z" fill="#F9961F"/>
<path d="M18.4436 17.1281L16.124 14.6722L18.4034 13.4583L18.4436 17.1281Z" fill="#F9961F"/>
<path fill-rule="evenodd" clip-rule="evenodd" d="M18.9189 8.84497H33.6609V27.5181H18.9189V8.84497ZM20.2531 11.1952V12.2576H29.2583V11.1952H20.2531ZM20.2531 22.6566V21.4976H29.2583V22.6566H20.2531ZM24.9891 24.1698C24.3444 24.1698 23.8218 24.6743 23.8218 25.2966C23.8218 25.9189 24.3444 26.4234 24.9891 26.4234C25.6339 26.4234 26.1565 25.9189 26.1565 25.2966C26.1565 24.6743 25.6339 24.1698 24.9891 24.1698ZM21.4204 24.1698C20.7757 24.1698 20.2531 24.6743 20.2531 25.2966C20.2531 25.9189 20.7757 26.4234 21.4204 26.4234C22.0651 26.4234 22.5877 25.9189 22.5877 25.2966C22.5877 24.6743 22.0651 24.1698 21.4204 24.1698ZM20.2531 14.962V13.9318H32.0599V14.962H20.2531ZM20.2531 17.5698V16.4752H29.2583V17.5698H20.2531ZM20.2531 20.1454V19.1474H32.0599V20.1454H20.2531Z" fill="#F9961F"/>
</svg>
