<svg width="48" height="47" viewBox="0 0 48 47" fill="none" xmlns="http://www.w3.org/2000/svg">
<path d="M10.1864 11.4125H2.07796C-0.759803 11.4125 -0.624683 15.4621 2.07796 15.4621H8.15926L16.4028 40.8642H22.5992C21.5572 41.4476 20.8626 42.4935 20.8626 43.6867C20.8626 45.5166 22.4962 47 24.5113 47C26.5265 47 28.1601 45.5166 28.1601 43.6867C28.1601 42.4935 27.4655 41.4476 26.4235 40.8642H40.708C39.6659 41.4476 38.9713 42.4935 38.9713 43.6867C38.9713 45.5166 40.6049 47 42.6201 47C44.6353 47 46.2689 45.5166 46.2689 43.6867C46.2689 42.4935 45.5743 41.4476 44.5323 40.8642H45.9985C48.4311 40.8642 48.4311 36.8146 45.9985 36.8146H19.2407L18.1061 33.0104H42.7551C42.7551 33.0104 47.4088 18.6527 47.7848 17.5483C48.1609 16.4439 48.296 15.1569 45.9985 15.1569C43.5149 21.4422 36.8803 27.1201 29.3966 30.5562C21.9639 27.3656 15.5414 21.2298 12.7545 15.0672L12.2135 13.2533C11.9093 12.0863 11.2676 11.4125 10.1864 11.4125Z" fill="#F9961F"/>
<path fill-rule="evenodd" clip-rule="evenodd" d="M43.9917 2.94515C36.424 3.43602 30.1565 -4.48013e-07 29.3966 0C28.6366 4.48013e-07 24.3455 3.43602 15.4772 3.43602C13.264 10.6762 16.3647 18.2745 22.7748 23.1932C22.7748 20.9812 25.3425 17.3029 29.3966 17.3029C33.7197 17.4255 36.4221 20.0008 36.424 23.0705C40.8602 19.1273 45.4274 11.4125 43.9917 2.94515ZM29.3966 9.20364C27.4561 9.20364 25.8831 10.6321 25.8831 12.3941C25.8831 14.1562 27.4561 15.5846 29.3966 15.5846C31.337 15.5846 32.9101 14.1562 32.9101 12.3941C32.9101 10.6321 31.337 9.20364 29.3966 9.20364Z" fill="#F9961F"/>
</svg>
