<svg width="26" height="44" viewBox="0 0 26 44" fill="none" xmlns="http://www.w3.org/2000/svg">
<path d="M22.3946 10.3862L22.4203 10.3731H19.8319C19.8448 10.2679 19.8576 10.1628 19.8576 10.0445V2.91997C19.8576 1.82895 18.9948 0.948242 17.926 0.948242C16.8571 0.948242 15.9943 1.82895 15.9943 2.91997V10.0576C15.9943 10.1628 16.0072 10.2679 16.02 10.3862H9.51673C9.52961 10.2811 9.54249 10.1759 9.54249 10.0576V2.91997C9.54249 1.82895 8.67967 0.948242 7.61081 0.948242C6.54195 0.948242 5.67913 1.82895 5.67913 2.91997V10.0576C5.67913 10.1628 5.69201 10.2679 5.70489 10.3862H3.21946C1.44232 10.3862 0 11.8585 0 13.6725V16.7484C0 22.9659 4.48149 28.1055 10.3023 29.0519H8.96299C7.54642 29.0519 6.38741 30.235 6.38741 31.6809C6.38741 33.1269 7.54642 34.3099 8.96299 34.3099H10.225V40.4222C10.225 41.8682 11.384 43.0512 12.8006 43.0512C14.2171 43.0512 15.3762 41.8682 15.3762 40.4222V34.3099H16.6382C18.0547 34.3099 19.2138 33.1269 19.2138 31.6809C19.2138 30.235 18.0547 29.0519 16.6382 29.0519H15.1057C15.2731 29.0388 15.4534 29.0388 15.6208 28.9994C21.3 27.9215 25.614 22.8476 25.614 16.7484V13.6725C25.614 11.8585 24.1717 10.3862 22.3946 10.3862Z" fill="#4C98DE"/>
</svg>
