<svg width="23" height="29" viewBox="0 0 23 29" fill="none" xmlns="http://www.w3.org/2000/svg">
<path fill-rule="evenodd" clip-rule="evenodd" d="M22.7334 0V28.3488H0.352792V0H22.7334ZM2.37819 3.56804V5.18098H16.0496V3.56804H2.37819ZM2.37819 20.9683V19.2087H16.0496V20.9683H2.37819ZM9.56834 23.2655C8.58957 23.2655 7.79612 24.0315 7.79612 24.9762C7.79612 25.921 8.58957 26.6869 9.56834 26.6869C10.5471 26.6869 11.3406 25.921 11.3406 24.9762C11.3406 24.0315 10.5471 23.2655 9.56834 23.2655ZM4.15041 23.2655C3.17164 23.2655 2.37819 24.0315 2.37819 24.9762C2.37819 25.921 3.17164 26.6869 4.15041 26.6869C5.12918 26.6869 5.92263 25.921 5.92263 24.9762C5.92263 24.0315 5.12918 23.2655 4.15041 23.2655ZM2.37819 9.28667V7.7226H20.3029V9.28667H2.37819ZM2.37819 13.2457V11.5839H16.0496V13.2457H2.37819ZM2.37819 17.1559V15.6407H20.3029V17.1559H2.37819Z" fill="#F9961F"/>
</svg>
