<svg width="34" height="34" viewBox="0 0 34 34" fill="none" xmlns="http://www.w3.org/2000/svg">
<path fill-rule="evenodd" clip-rule="evenodd" d="M26.3603 22.4817C27.9181 20.1795 28.8279 17.403 28.8279 14.414C28.8279 6.45335 22.3746 0 14.414 0C6.45335 0 0 6.45335 0 14.414C0 22.3746 6.45335 28.8279 14.414 28.8279C17.6135 28.8279 20.5695 27.7855 22.9609 26.0217L29.7874 32.8482C30.7455 33.8063 32.2989 33.8063 33.257 32.8482C34.2152 31.89 34.2152 30.3366 33.257 29.3785L26.3603 22.4817ZM14.4139 24.0128C19.5516 24.0128 24.2682 19.5516 24.2682 14.4139C24.2682 9.27616 19.5516 4.5981 14.4139 4.5981C9.27619 4.5981 4.5981 9.27616 4.5981 14.4139C4.5981 19.5516 9.27619 24.0128 14.4139 24.0128Z" fill="#4C98DE"/>
</svg>
