<svg width="44" height="44" viewBox="0 0 44 44" fill="none" xmlns="http://www.w3.org/2000/svg">
<path d="M15.5867 42.8802H15.5734V35.0669L23.24 28.5335L31.2267 40.3335C32.2534 41.8535 34.6134 41.1202 34.6134 39.2802L31.4667 20.1602C39.4134 11.3202 44.0934 3.54687 42.28 1.7202C40.4667 -0.106465 32.7467 4.61354 23.9734 12.6269L5.05336 9.46687C3.22669 9.46687 2.49336 11.8402 4.00003 12.8802L15.6667 20.9069L9.05336 28.8135H1.12003C0.120027 28.8135 -0.373306 30.0269 0.346694 30.7202L4.94669 35.1602L4.69336 36.5735C4.36003 38.3735 5.94669 39.9469 7.74669 39.6002L9.14669 39.3335L13.6934 43.6802C14.4 44.3602 15.5867 43.8535 15.5867 42.8802Z" fill="#E86016"/>
</svg>
