<svg width="42" height="42" viewBox="0 0 42 42" fill="none" xmlns="http://www.w3.org/2000/svg">
<path d="M18.72 41.9078H19.7216C20.9207 41.9078 21.88 40.9658 21.6774 39.819V2.16693C21.88 1.00652 20.9066 0.078186 19.7216 0.078186H18.7341C17.535 0.078186 16.5757 1.02017 16.5757 2.16693V4.26934L14.9111 3.38196C13.8672 2.82223 12.5552 3.19083 11.9768 4.20108L11.4972 5.0475C10.9188 6.05774 11.2997 7.34103 12.3436 7.8871L16.5898 10.167V16.4469L10.9752 13.3069L11.0599 8.61066C11.074 7.45024 10.1288 6.4946 8.92972 6.48095H7.92812C7.36384 6.4946 6.79956 6.65843 6.39046 7.05433C5.98135 7.45024 5.74153 7.96902 5.72743 8.52875L5.69921 10.3581L3.82298 9.30691C2.79317 8.73352 1.46711 9.07482 0.87461 10.0714L0.366758 10.9178C0.0705104 11.3957 -2.47313e-05 11.969 0.155152 12.5015C0.31033 13.0475 0.663005 13.4981 1.15675 13.7711L3.07531 14.8496L1.35425 15.8462C0.338544 16.4469 -2.47415e-05 17.7302 0.620684 18.7131L1.14264 19.5459C1.43889 20.0237 1.91853 20.365 2.4687 20.5015C3.01888 20.638 3.61137 20.5561 4.10512 20.2694L8.36544 17.7984L13.98 20.9384L8.26669 24.1329L4.10512 21.7165C3.61137 21.4298 3.03298 21.3479 2.4687 21.4844C1.90442 21.621 1.43889 21.9623 1.12854 22.4401L0.606577 23.2729C-2.47415e-05 24.2558 0.324437 25.5527 1.34014 26.1398L2.96245 27.0818L1.08622 28.133C0.59247 28.4196 0.225688 28.8702 0.0846174 29.4026C-0.0705598 29.9487 0.0140823 30.5084 0.296223 30.9862L0.804075 31.8326C1.39657 32.8292 2.72263 33.1705 3.75244 32.5971L5.671 31.5186L5.69921 33.4572C5.69921 34.0169 5.93903 34.5357 6.36224 34.9316C6.77134 35.3275 7.30741 35.4914 7.89991 35.5187H8.9015C10.0865 35.4777 11.0458 34.5221 11.0317 33.3753L10.947 28.5698L16.5616 25.4299V31.819L12.3154 34.0989C11.8075 34.3719 11.4408 34.8088 11.2856 35.3548C11.1304 35.8873 11.1868 36.4606 11.469 36.9521L11.9486 37.7985C12.2308 38.29 12.6963 38.645 13.2465 38.7951C13.8107 38.9453 14.3891 38.8907 14.897 38.6176L16.5616 37.7303V39.819C16.5616 40.9794 17.535 41.9078 18.72 41.9078ZM35.1265 7.08164L33.49 5.49801C32.8834 4.91098 31.9101 4.91098 31.3035 5.49801L27.4946 9.18404C26.888 9.77107 26.888 10.7131 27.4946 11.3001L29.131 12.8837C29.7376 13.4708 30.711 13.4708 31.3176 12.8837L35.1265 9.19769C35.7331 8.61066 35.7331 7.66867 35.1265 7.08164ZM31.3035 36.5016C31.9101 37.0886 32.8834 37.0886 33.49 36.5016L35.1265 34.918C35.7331 34.3309 35.7331 33.389 35.1265 32.8019L31.3176 29.1159C30.711 28.5289 29.7376 28.5289 29.131 29.1159L27.4946 30.6995C26.888 31.2866 26.888 32.2285 27.4946 32.8156L31.3035 36.5016ZM40.6141 22.1124V19.8735C40.6141 19.0407 39.9228 18.3718 39.0623 18.3718L33.6734 18.3855C32.827 18.3855 32.1358 19.0544 32.1358 19.8735V22.1261C32.1358 22.9452 32.827 23.6142 33.6734 23.6142H39.0623C39.9228 23.6142 40.6141 22.9452 40.6141 22.1124Z" fill="#75BA58"/>
</svg>
