<svg width="24" height="24" viewBox="0 0 24 24" fill="none" xmlns="http://www.w3.org/2000/svg">
<path d="M11.7749 11.7749C13.5 11.7749 15.5 11 15.5 8.5C15.5 6 13.933 5 12 5C10.067 5 8.43582 6.56807 8.5 8.5C8.56005 10.3077 9.57166 11.7749 11.7749 11.7749ZM11.7749 11.7749C7.63502 11.7749 4.72506 15.2251 4.5 20M11.7749 11.7749C15.5 11.7749 19.0995 14.8102 19.1493 20.3601M4.5 20C2.64015 18.03 1 14.9231 1 12C1 5.92487 5.92487 1 12 1C18.0751 1 23 5.92487 23 12C23 18.0751 18.0751 23 12 23C8.84794 23 6.50554 22.1243 4.5 20Z" stroke="#52575F" stroke-linejoin="round"/>
</svg>
