<svg width="44" height="44" viewBox="0 0 44 44" fill="none" xmlns="http://www.w3.org/2000/svg">
<path d="M16.335 25.0939C16.335 21.9314 18.8787 19.3739 22 19.3739C25.135 19.3739 27.665 21.9314 27.665 25.0939C27.665 28.2564 25.1213 30.8139 22 30.8139C18.8787 30.8139 16.335 28.2564 16.335 25.0939ZM32.5875 41.3052C31.8863 36.0389 27.4175 31.9827 22 31.9827C16.5825 31.9827 12.1138 36.0389 11.4125 41.3052C11.3162 42.0752 11.9212 42.7489 12.6912 42.6252H31.3088C32.0788 42.7489 32.6838 42.0752 32.5875 41.3052ZM8.69 40.9339V40.9477C9.28125 36.4927 12.0312 32.7664 15.785 30.7864C14.4237 29.2739 13.5712 27.2802 13.5712 25.0939C13.5712 23.8977 13.8188 22.7564 14.2725 21.7252H8.69C3.89125 21.7252 0 25.6164 0 30.4152V42.7489H8.8825C8.69 42.1714 8.6075 41.5527 8.69 40.9339ZM35.2962 21.7389L35.31 21.7252H29.7275C30.1675 22.7564 30.4287 23.8977 30.4287 25.0939C30.4287 27.2939 29.59 29.2877 28.215 30.7864C31.9688 32.7664 34.7188 36.4927 35.31 40.9477C35.3925 41.5664 35.31 42.1852 35.1175 42.7627H43.9862V30.4289C43.9862 25.6302 40.095 21.7389 35.2962 21.7389ZM2.145 9.50143C2.145 14.1489 5.885 17.9164 10.4775 17.9164C15.0837 17.9164 18.81 14.1489 18.81 9.50143C18.81 4.85393 15.07 1.08643 10.4775 1.08643C5.885 1.08643 2.145 4.85393 2.145 9.50143ZM25.2038 9.50143C25.2038 14.1489 28.9437 17.9164 33.5362 17.9164C38.1425 17.9164 41.8688 14.1489 41.8688 9.50143C41.8688 4.85393 38.1287 1.08643 33.5362 1.08643C28.9437 1.08643 25.2038 4.85393 25.2038 9.50143Z" fill="#007EF2"/>
</svg>
